<?xml version="1.0" standalone="no"?>
<!DOCTYPE svg PUBLIC "-//W3C//DTD SVG 20010904//EN"
 "http://www.w3.org/TR/2001/REC-SVG-20010904/DTD/svg10.dtd">
<svg version="1.0" xmlns="http://www.w3.org/2000/svg"
 width="225.000000pt" height="225.000000pt" viewBox="0 0 225.000000 225.000000"
 preserveAspectRatio="xMidYMid meet">

<g transform="translate(0.000000,225.000000) scale(0.100000,-0.100000)"
fill="#000000" stroke="none">
<path d="M343 1581 c-89 -41 -118 -90 -158 -267 -15 -66 -36 -144 -47 -174
-42 -114 -48 -145 -48 -234 0 -89 1 -93 50 -191 27 -55 65 -118 84 -140 l34
-40 188 0 c135 0 188 3 191 12 2 6 18 27 34 45 34 38 69 101 102 185 33 85 30
212 -8 308 -14 39 -42 135 -62 215 -19 79 -40 158 -48 176 -42 101 -201 155
-312 105z m205 -71 c54 -24 68 -55 77 -175 6 -67 18 -116 47 -195 l40 -105 -4
-151 c-3 -144 -4 -152 -30 -191 -19 -28 -45 -50 -85 -70 -50 -24 -69 -28 -143
-27 -114 0 -165 17 -216 68 -54 54 -69 118 -61 267 5 86 14 128 43 215 25 76
39 136 43 199 9 106 28 147 80 169 52 22 157 20 209 -4z"/>
<path d="M930 1441 c0 -119 0 -119 25 -123 24 -5 25 -3 25 48 0 30 4 54 8 54
5 0 16 -16 25 -35 14 -29 22 -35 47 -35 25 0 33 6 47 35 23 48 33 44 33 -15 0
-47 2 -50 25 -50 l25 0 0 120 0 120 -27 0 c-25 0 -32 -8 -62 -70 -18 -39 -38
-70 -43 -70 -5 0 -24 32 -41 70 -28 63 -34 70 -59 70 l-28 0 0 -119z"/>
<path d="M1294 1549 c-69 -34 -72 -172 -5 -212 16 -9 49 -17 74 -17 36 0 51 6
76 29 28 26 31 35 31 85 0 35 -6 66 -16 81 -26 40 -110 58 -160 34z m109 -56
c25 -29 26 -82 1 -107 -16 -16 -71 -21 -90 -8 -6 4 -14 16 -19 27 -21 52 11
105 65 105 15 0 34 -8 43 -17z"/>
<path d="M1575 1546 c-38 -16 -55 -53 -55 -115 0 -42 5 -53 33 -81 30 -30 36
-32 91 -28 46 4 63 9 77 27 11 13 19 27 19 31 0 15 -43 19 -57 4 -19 -19 -78
-18 -97 2 -25 24 -21 90 6 108 28 20 59 20 84 1 32 -24 70 -12 58 19 -16 41
-100 58 -159 32z"/>
<path d="M929 1173 c0 -16 0 -206 1 -225 0 -15 140 -8 170 7 24 13 30 22 30
50 0 23 -7 39 -21 49 l-21 14 21 23 c51 55 7 96 -104 98 -65 1 -75 -1 -76 -16z
m139 -55 c-2 -19 -10 -24 -45 -26 -40 -3 -43 -1 -43 22 0 24 3 26 46 26 41 0
45 -2 42 -22z m5 -77 c4 -1 7 -12 7 -26 0 -23 -3 -25 -50 -25 -46 0 -50 2 -50
23 0 33 8 38 49 33 20 -3 39 -5 44 -5z"/>
<path d="M1259 1183 c-70 -11 -118 -134 -71 -181 11 -11 18 -22 16 -25 -7 -7
62 -37 85 -37 39 0 89 28 105 59 28 53 15 134 -26 168 -16 14 -74 22 -109 16z
m82 -69 c15 -19 20 -110 5 -111 -6 -1 -25 -4 -41 -8 -46 -10 -79 20 -77 70 1
20 7 44 13 51 16 19 83 18 100 -2z"/>
<path d="M1490 1125 c0 -65 -20 -135 -38 -135 -13 0 -22 -39 -11 -45 24 -16
103 59 98 92 -1 4 -1 29 0 56 l1 47 40 0 40 0 0 -100 0 -100 30 0 30 0 0 125
0 125 -95 0 -95 0 0 -65z"/>
<path d="M1825 1185 c-5 -2 -22 -6 -37 -9 -52 -12 -84 -103 -58 -170 12 -32
65 -66 103 -66 110 0 168 135 90 210 -26 25 -73 42 -98 35z m63 -74 c7 -9 12
-34 10 -56 -2 -32 -8 -42 -31 -53 -37 -18 -79 -4 -91 31 -27 75 65 138 112 78z"/>
<path d="M2000 1066 l0 -126 25 0 c23 0 25 3 25 50 l0 50 49 0 50 0 3 -47 c3
-44 5 -48 31 -51 l28 -3 -3 123 -3 123 -25 0 c-23 0 -25 -4 -28 -47 l-3 -48
-49 0 -49 0 -3 48 c-3 40 -6 47 -25 50 -23 3 -23 2 -23 -122z"/>
<path d="M1317 894 c-14 -15 -6 -34 14 -34 14 0 19 5 17 17 -3 18 -20 27 -31
17z"/>
<path d="M1385 891 c-8 -15 3 -31 21 -31 9 0 14 7 12 17 -4 20 -24 28 -33 14z"/>
<path d="M930 685 l0 -125 25 0 c25 0 25 0 25 100 0 97 1 100 24 106 14 3 30
3 35 -1 7 -4 11 -47 11 -106 0 -99 0 -99 25 -99 24 0 24 1 27 103 l3 102 30 0
30 0 3 -101 c3 -101 3 -102 27 -100 l25 1 0 123 0 122 -145 0 -145 0 0 -125z"/>
<path d="M1272 688 l3 -123 90 0 c86 0 90 1 93 23 3 21 0 22 -62 22 -64 0 -66
1 -66 25 0 26 2 27 68 29 26 0 32 4 32 23 0 19 -6 22 -47 25 -44 3 -48 5 -48
28 0 24 3 25 63 28 54 3 62 6 62 22 0 18 -7 20 -95 20 l-96 0 3 -122z"/>
<path d="M1510 687 c0 -123 0 -124 23 -123 18 1 23 8 27 41 5 39 6 40 50 43
64 4 88 19 102 64 10 34 9 42 -9 66 -19 25 -26 27 -107 30 l-86 3 0 -124z
m143 74 c4 -1 7 -14 7 -31 0 -29 -1 -30 -50 -30 -48 0 -50 1 -50 28 0 16 2 31
5 34 4 4 56 3 88 -1z"/>
</g>
</svg>
