<?xml version="1.0" standalone="no"?>
<!DOCTYPE svg PUBLIC "-//W3C//DTD SVG 20010904//EN"
 "http://www.w3.org/TR/2001/REC-SVG-20010904/DTD/svg10.dtd">
<svg version="1.0" xmlns="http://www.w3.org/2000/svg"
 width="287.000000pt" height="176.000000pt" viewBox="0 0 287.000000 176.000000"
 preserveAspectRatio="xMidYMid meet">
<metadata>
Created by potrace 1.16, written by Peter Selinger 2001-2019
</metadata>
<g transform="translate(0.000000,176.000000) scale(0.100000,-0.100000)"
fill="#000000" stroke="none">
<path d="M330 840 c0 -633 2 -720 15 -720 13 0 15 85 15 705 l0 705 230 0
c198 0 230 2 230 15 0 13 -34 15 -245 15 l-245 0 0 -720z"/>
<path d="M960 1545 c0 -12 86 -15 643 -17 l642 -3 60 -24 c72 -29 159 -112
195 -186 l25 -50 0 -430 0 -430 -34 -63 c-39 -72 -88 -120 -163 -159 -50 -27
-60 -28 -188 -28 -129 0 -138 1 -188 28 -72 38 -138 106 -170 175 l-27 57 -3
393 c-2 342 -5 392 -18 392 -13 0 -15 -48 -12 -397 l3 -398 27 -58 c35 -73
116 -155 193 -193 57 -28 66 -29 195 -29 128 0 138 2 192 28 84 41 152 107
190 185 l33 67 0 430 0 430 -27 57 c-56 121 -176 209 -309 228 -35 5 -333 10
-661 10 -519 0 -598 -2 -598 -15z"/>
<path d="M390 805 c0 -602 2 -685 15 -685 13 0 15 81 15 670 l0 670 199 0
c168 0 200 2 205 15 5 13 -23 15 -214 15 l-220 0 0 -685z"/>
<path d="M960 1475 c0 -13 72 -15 638 -15 l639 0 61 -30 c68 -35 115 -82 146
-149 20 -44 21 -60 21 -446 0 -390 -1 -401 -22 -447 -52 -113 -162 -178 -303
-178 -103 0 -174 26 -235 86 -90 87 -90 85 -93 522 -3 331 -5 382 -18 382 -13
0 -15 -48 -12 -383 l3 -382 33 -67 c58 -117 156 -179 298 -186 184 -10 326 84
369 243 14 51 16 114 13 440 l-3 380 -28 56 c-32 66 -99 132 -165 162 -46 22
-55 22 -694 25 -576 2 -648 1 -648 -13z"/>
<path d="M460 775 c0 -576 2 -655 15 -655 13 0 15 78 15 640 l0 640 165 0
c140 0 165 2 165 15 0 13 -27 15 -180 15 l-180 0 0 -655z"/>
<path d="M960 1415 c0 -13 69 -15 618 -15 394 0 630 -4 654 -10 54 -15 118
-68 144 -120 23 -45 23 -48 24 -431 l0 -385 -26 -52 c-74 -148 -315 -178 -432
-54 -61 65 -62 72 -62 480 0 324 -2 372 -15 372 -13 0 -15 -47 -15 -367 0
-223 4 -383 10 -405 17 -59 69 -119 133 -152 50 -26 68 -29 145 -29 134 0 216
45 266 145 l26 52 0 390 c0 372 -1 393 -21 436 -26 58 -62 96 -124 128 l-50
27 -637 3 c-568 2 -638 1 -638 -13z"/>
<path d="M520 740 c0 -544 2 -620 15 -620 13 0 15 74 15 610 l0 610 135 0 c83
0 135 4 135 10 0 6 -57 10 -150 10 l-150 0 0 -620z"/>
<path d="M960 1350 c0 -6 230 -10 628 -12 l628 -3 43 -28 c28 -19 49 -43 62
-72 19 -42 20 -66 17 -413 l-3 -368 -25 -37 c-38 -56 -85 -77 -169 -77 -43 0
-83 6 -99 14 -41 21 -81 68 -92 107 -6 19 -10 186 -10 386 0 312 -2 353 -15
353 -14 0 -16 -42 -13 -373 l3 -374 30 -48 c20 -32 45 -57 75 -72 39 -21 56
-24 131 -21 110 4 158 32 195 113 l25 54 -3 375 -3 374 -30 44 c-18 25 -49 52
-75 66 l-44 22 -628 0 c-400 0 -628 -4 -628 -10z"/>
<path d="M1170 704 c0 -472 3 -595 13 -592 9 4 13 134 15 596 2 522 0 592 -13
592 -13 0 -15 -71 -15 -596z"/>
<path d="M1230 705 c0 -522 2 -595 15 -595 13 0 15 73 15 595 0 522 -2 595
-15 595 -13 0 -15 -73 -15 -595z"/>
<path d="M1292 708 c2 -462 6 -592 16 -596 9 -3 12 120 12 592 0 525 -2 596
-15 596 -13 0 -15 -70 -13 -592z"/>
<path d="M1360 704 c0 -472 3 -595 13 -592 9 4 13 134 15 596 2 522 0 592 -13
592 -13 0 -15 -71 -15 -596z"/>
</g>
</svg>
