<svg xmlns="http://www.w3.org/2000/svg" width="287" height="176" viewBox="0 0 287 176" version="1.1">
	<path d="M 27 87.464 L 27 174.928 17.250 175.254 L 7.500 175.581 17.750 175.791 L 28 176 28 88 C 28 39.600, 27.775 0, 27.500 0 C 27.225 0, 27 39.359, 27 87.464 M 61.243 92.149 C 61.445 148.824, 61.769 164.423, 62.750 164.750 C 63.742 165.081, 64 150.506, 64 94.083 L 64 23 87.583 23 C 106.005 23, 111.076 22.726, 110.751 21.750 C 110.436 20.805, 104.317 20.435, 85.661 20.233 L 60.987 19.965 61.243 92.149 M 123.667 20.667 C 123.300 21.033, 123 21.708, 123 22.167 C 123 22.625, 150.367 23, 183.816 23 C 223.298 23, 246.714 23.381, 250.566 24.087 C 262.822 26.332, 272.693 33.851, 277.865 44.880 L 280.500 50.500 280.500 92.500 L 280.500 134.500 277.830 140.196 C 274.424 147.463, 267.463 154.424, 260.196 157.830 C 254.975 160.277, 253.457 160.500, 242 160.500 C 230.326 160.500, 229.122 160.315, 223.782 157.692 C 216.271 154.004, 210.037 147.814, 206.425 140.457 L 203.500 134.500 203.207 94.750 C 202.953 60.340, 202.714 55, 201.424 55 C 200.125 55, 199.971 60.142, 200.217 95.273 L 200.500 135.547 203.741 142.128 C 207.645 150.055, 214.800 157.079, 222.782 160.820 C 228.100 163.313, 229.445 163.500, 242.021 163.500 C 255.247 163.500, 255.686 163.429, 262.126 160.259 C 270.055 156.355, 277.078 149.203, 280.820 141.218 L 283.500 135.500 283.500 92 L 283.500 48.500 280.640 42.858 C 275.022 31.772, 263.724 23.311, 251.566 21.086 C 245.055 19.894, 124.833 19.500, 123.667 20.667 M 67.243 95.667 C 67.445 149.527, 67.770 164.423, 68.750 164.750 C 69.742 165.081, 70 151.206, 70 97.583 L 70 30 90.500 30 C 108.056 30, 111 29.785, 111 28.500 C 111 27.212, 107.888 27, 88.993 27 L 66.986 27 67.243 95.667 M 123 28.472 C 123 29.751, 131.591 29.981, 188.250 30.222 L 253.500 30.500 258.922 33.500 C 264.885 36.799, 271.094 43.875, 273.168 49.736 C 274.191 52.628, 274.500 62.650, 274.500 93 C 274.500 132.469, 274.498 132.504, 272.147 137.236 C 269.144 143.278, 263.185 149.237, 257.195 152.187 C 253.187 154.161, 250.963 154.499, 242 154.492 C 233.044 154.485, 230.813 154.144, 226.828 152.168 C 220.382 148.974, 215.202 143.658, 212.111 137.067 L 209.500 131.500 209.195 93.250 C 208.931 60.065, 208.692 55, 207.392 55 C 206.080 55, 205.932 59.903, 206.204 94.250 C 206.504 132.220, 206.586 133.654, 208.708 138.220 C 211.799 144.867, 217.939 151.139, 224.710 154.568 C 230.115 157.305, 231.265 157.500, 242 157.500 C 251.676 157.500, 254.242 157.157, 258.176 155.339 C 264.798 152.279, 271.497 145.724, 274.730 139.142 L 277.500 133.500 277.500 92.500 L 277.500 51.500 274.738 45.875 C 271.125 38.519, 263.941 31.870, 256.662 29.146 C 251.014 27.033, 249.931 27, 186.962 27 C 131.311 27, 123 27.191, 123 28.472 M 74 99.083 C 74 151.506, 74.258 165.081, 75.250 164.750 C 76.229 164.424, 76.556 150.427, 76.757 100.167 L 77.015 36 94.007 36 C 108.445 36, 111 35.774, 111 34.500 C 111 33.221, 108.278 33, 92.500 33 L 74 33 74 99.083 M 123 34.500 C 123 35.817, 130.538 36, 184.841 36 C 251.815 36, 252.241 36.031, 259.349 41.453 C 261.303 42.943, 264.049 46.465, 265.451 49.278 L 268 54.393 268 92.228 C 268 133.938, 267.951 134.316, 261.699 140.838 C 256.139 146.639, 251.611 148.370, 242 148.370 C 232.389 148.370, 227.861 146.639, 222.301 140.838 C 216.054 134.321, 216 133.907, 216 92.532 C 216 59.837, 215.807 55, 214.500 55 C 213.193 55, 213 59.923, 213 93.304 L 213 131.607 215.578 136.780 C 220.554 146.767, 228.883 151.392, 242 151.454 C 255.313 151.517, 263.761 146.771, 268.617 136.500 C 270.976 131.510, 270.980 131.424, 270.980 92.500 C 270.980 53.643, 270.972 53.482, 268.626 48.444 C 265.689 42.136, 259.125 36.412, 252.612 34.477 C 245.083 32.242, 123 32.263, 123 34.500 M 80.242 101.641 C 80.444 150.722, 80.771 164.424, 81.750 164.750 C 82.741 165.080, 83 152.511, 83 104.112 L 83 43.056 96.750 42.778 C 108.182 42.547, 110.500 42.247, 110.500 41 C 110.500 39.744, 108.015 39.455, 95.242 39.224 L 79.985 38.948 80.242 101.641 M 123.401 40.160 C 123.115 40.622, 123.160 41.450, 123.500 42 C 123.901 42.649, 146.043 43, 186.658 43 C 256.846 43, 253.779 42.689, 258.839 50.331 L 261.500 54.350 261.798 89.642 C 261.991 112.584, 261.719 126.329, 261.021 128.921 C 259.677 133.915, 255.588 138.856, 251.329 140.636 C 247.129 142.391, 236.871 142.391, 232.671 140.636 C 228.509 138.897, 224.368 133.986, 223.044 129.219 C 222.424 126.986, 222.009 111.412, 222.006 90.250 C 222.001 59.134, 221.819 55, 220.455 55 C 219.085 55, 218.944 59.316, 219.205 93.416 L 219.500 131.831 222.500 136.089 C 226.973 142.437, 232.582 145, 242 145 C 251.418 145, 257.027 142.437, 261.500 136.089 L 264.500 131.831 264.814 94.666 C 265.150 55.013, 264.907 52.420, 260.348 47.001 C 254.465 40.010, 257.425 40.302, 187.210 39.786 C 152.400 39.530, 123.686 39.699, 123.401 40.160 M 145 105.500 C 145 157.722, 145.183 165, 146.500 165 C 147.817 165, 148 157.722, 148 105.500 C 148 53.278, 147.817 46, 146.500 46 C 145.183 46, 145 53.278, 145 105.500 M 151 105.500 C 151 157.722, 151.183 165, 152.500 165 C 153.817 165, 154 157.722, 154 105.500 C 154 53.278, 153.817 46, 152.500 46 C 151.183 46, 151 53.278, 151 105.500 M 157 105.500 C 157 157.722, 157.183 165, 158.500 165 C 159.817 165, 160 157.722, 160 105.500 C 160 53.278, 159.817 46, 158.500 46 C 157.183 46, 157 53.278, 157 105.500 M 164 105.500 C 164 157.722, 164.183 165, 165.500 165 C 166.817 165, 167 157.722, 167 105.500 C 167 53.278, 166.817 46, 165.500 46 C 164.183 46, 164 53.278, 164 105.500 M 1.762 175.707 C 3.006 175.946, 4.806 175.937, 5.762 175.687 C 6.718 175.437, 5.700 175.241, 3.500 175.252 C 1.300 175.263, 0.518 175.468, 1.762 175.707 " stroke="none" fill="black" fill-rule="evenodd"/>
</svg>